<!-- <svg xmlns="http://www.w3.org/2000/svg" enable-background="new 0 0 24 24" height="24px" viewBox="0 0 24 24" width="24px" fill="#000000"><g><rect fill="none" height="24" width="24"/></g><g><path d="M21,9.02c0,1.09-0.89,1.98-1.98,1.98H18V8.86c1.72-0.44,3-1.99,3-3.84V5l-2,0.02C19,6.11,18.11,7,17.02,7H16.5L12,1L7.5,7 H6.98C5.89,7,5,6.11,5,5.02H3c0,1.86,1.28,3.4,3,3.84V11H4.98C3.89,11,3,10.11,3,9.02H1c0,1.86,1.28,3.4,3,3.84V22h7v-4 c0-0.55,0.45-1,1-1s1,0.45,1,1v4h7v-9.14c1.72-0.44,3-1.99,3-3.84V9L21,9.02z M12,4.33L14,7h-4L12,4.33z M8,9h8v2H8V9z M18,20h-3 v-2c0-1.65-1.35-3-3-3c-1.65,0-3,1.35-3,3v2H6v-7h12V20z"/></g></svg> -->
<svg xmlns="http://www.w3.org/2000/svg" id="Layer_1" data-name="Layer 1" viewBox="0 0 24 24" width="24px" height="24px"><path d="M2,3C2,1.346,3.346,0,5,0s3,1.346,3,3-1.346,3-3,3-3-1.346-3-3Zm13,3c1.654,0,3-1.346,3-3s-1.346-3-3-3-3,1.346-3,3,1.346,3,3,3ZM7,11c0,1.654,1.346,3,3,3s3-1.346,3-3-1.346-3-3-3-3,1.346-3,3Zm.031-4H3.5c-1.93,0-3.5,1.57-3.5,3.5v3.5H3v-3.5c0-.276,.224-.5,.5-.5h1.601c.25-1.226,.96-2.278,1.93-3Zm14.893,11.823l1.522,.879-1.5,2.598-1.524-.88c-.416,.356-.897,.637-1.422,.824v1.757h-3v-1.757c-.526-.186-1.007-.468-1.422-.824l-1.524,.88-1.5-2.598,1.522-.879c-.049-.267-.076-.542-.076-.823s.026-.556,.076-.823l-1.522-.879,1.5-2.598,1.524,.88c.416-.356,.897-.637,1.422-.824v-1.757h3v1.757c.526,.186,1.007,.468,1.422,.824l1.524-.88,1.5,2.598-1.522,.879c.049,.267,.076,.542,.076,.823s-.026,.556-.076,.823Zm-2.924-.823c0-.827-.673-1.5-1.5-1.5s-1.5,.673-1.5,1.5,.673,1.5,1.5,1.5,1.5-.673,1.5-1.5Zm-15,.5v3.5h3v-3.5c0-.276,.224-.5,.5-.5h2c0-1.062,.211-2.073,.587-3h-2.587c-1.93,0-3.5,1.57-3.5,3.5ZM12.969,7c.97,.722,1.68,1.774,1.93,3h1.601c.07,0,.136,.015,.196,.041,.264-.026,.532-.041,.804-.041,.87,0,1.706,.143,2.49,.4-.054-1.883-1.594-3.4-3.49-3.4h-3.531Z"/></svg>
